<svg xmlns="http://www.w3.org/2000/svg" viewBox="0 0 118 36"><path fill="#fff" d="M104.08 0c7.269.011 13.159 5.901 13.17 13.17v9.66c-.011 7.269-5.901 13.159-13.17 13.17h-1.5c-7.27-.006-13.16-5.9-13.16-13.17v-9.66C89.42 5.9 95.31.006 102.58 0zM6.16.56l68.38.06a6.15 6.15 0 016.16 6.15v22.51a6.17 6.17 0 01-5.934 6.156l-.226.004H6.16A6.17 6.17 0 010 29.23V6.72A6.17 6.17 0 016.16.56zm-.01 2.61a3.55 3.55 0 00-3.54 3.55v22.51a3.56 3.56 0 003.55 3.55h68.38a3.56 3.56 0 003.55-3.55V6.77a3.56 3.56 0 00-3.55-3.55L6.15 3.17zM36.1 7.13a.87.87 0 01.892.753L37 8v12.94a3.12 3.12 0 002.74 3.16 3 3 0 003.34-2.73V8c0-.48.39-.87.87-.87h5a.87.87 0 01.843.763L49.8 8v3.08a.87.87 0 01-.87.88h-.41a.21.21 0 00-.215.162l-.005.058v3.48c0 .317.375.87 1.132 1.617l.168.163a.65.65 0 01.067.842l-.067.078c-.87.82-1.3 1.41-1.3 1.77v.65a8.46 8.46 0 01-8.12 8.54 8.27 8.27 0 01-8.43-8.11v-1.06c0-.36-.43-.95-1.3-1.77a.65.65 0 01-.067-.842l.067-.078c.87-.83 1.3-1.42 1.3-1.76v-3.51a.22.22 0 00-.22-.22h-.43a.87.87 0 01-.863-.76l-.007-.11V8c0-.48.39-.87.87-.87h5zm20.68.01a1.08 1.08 0 011.07 1.08V11l2.67 3.59a.14.14 0 00.1.05.16.16 0 00.11-.05l2.69-3.6V8.22a1.08 1.08 0 011.07-1.08h3.84c.285.003.558.118.76.32.2.202.312.476.31.76v2.85c.028.37-.067.74-.27 1.05L64.84 18l4.29 5.93c.207.316.302.693.27 1.07v2.87c0 .281-.111.551-.31.75a1.09 1.09 0 01-.76.32h-3.84a1.07 1.07 0 01-.76-.32 1.06 1.06 0 01-.31-.75V25l-2.67-3.53a.15.15 0 00-.1-.06.14.14 0 00-.11.06L57.85 25v2.86a1 1 0 01-.31.75c-.2.204-.474.32-.76.32h-3.84a1.09 1.09 0 01-.76-.32 1.06 1.06 0 01-.31-.75V25a1.69 1.69 0 01.27-1.12L56.43 18l-4.29-5.86a1.67 1.67 0 01-.27-1.06V8.22a1.07 1.07 0 01.31-.76 1.09 1.09 0 01.76-.32zm-34.97 0a6.21 6.21 0 016.32 6.1A6 6 0 0126 17.8a5.13 5.13 0 013.15 5.07 6.39 6.39 0 01-6.45 6H12.21a.87.87 0 01-.87-.87v-3.1l.007-.11a.87.87 0 01.863-.76h.32a.31.31 0 00.31-.31v-3.6c0-.36-.44-.94-1.3-1.76a.65.65 0 010-.93l.168-.163c.757-.745 1.132-1.28 1.132-1.597v-3.5l-.007-.053a.2.2 0 00-.193-.147h-.43a.87.87 0 01-.87-.87V8.01l.007-.11a.87.87 0 01.863-.76zm87 7.21l-9.23 12.07a4.58 4.58 0 003 1.11h1.5l.02.01a4.71 4.71 0 004.71-4.71v-8.48zM22.86 20.6h-5a.22.22 0 00-.22.22v3.26c0 .122.098.22.22.22h5a1.75 1.75 0 001.5-1.85 1.75 1.75 0 00-1.5-1.85zm81.22-12.14h-1.5a4.72 4.72 0 00-4.7 4.71v8.48l9.2-12.07a4.67 4.67 0 00-3-1.12zm-82.2 3.25h-4.09a.21.21 0 00-.21.22l.04 3.27c0 .116.094.21.21.21h4.05a1.77 1.77 0 001.55-1.85 1.77 1.77 0 00-1.55-1.85z"></path></svg>
